<?xml version="1.0" encoding="UTF-8"?> <svg xmlns="http://www.w3.org/2000/svg" height="466.66666" viewBox="0 0 800 466.66666" width="800"><g fill="#fff" transform="matrix(.13333333 0 0 -.13333333 0 466.66667)"><g fill-rule="evenodd"><path d="m1675.23 763.672 160.1 25.816 82.63 160.09 77.46-154.918 170.43-30.988-118.78-118.793 25.82-170.418-154.93 72.309-154.93-72.309 20.65 170.418z"></path><path d="m2214.96 763.672 160.1 25.816 82.63 160.09 77.47-154.918 170.42-30.988-118.78-118.793 25.82-170.418-154.93 72.309-154.94-72.309 20.67 170.418z"></path><path d="m2754.7 763.672 160.09 25.816 82.63 160.09 77.46-154.918 170.42-30.988-118.78-118.793 25.82-170.418-154.92 72.309-154.93-72.309 20.65 170.418z"></path><path d="m3294.42 763.672 160.1 25.816 82.63 160.09 77.46-154.918 170.43-30.988-118.78-118.793 25.82-170.418-154.93 72.309-154.93-72.309 20.65 170.418z"></path><path d="m3834.15 763.672 160.1 25.816 82.63 160.09 77.47-154.918 170.42-30.988-118.78-118.793 25.82-170.418-154.93 72.309-154.94-72.309 20.67 170.418z"></path></g><path d="m1851.54 2723.4c-32.53-33.67-64.56-66.82-96.56-99.94-15.19 11.82-29.4 24.17-44.84 34.73-218.42 149.48-514.75 31.63-568.74-228.12-28.55-137.33 6.11-259.17 110.09-356.34 78.97-73.8 174.84-104.02 282.43-96.04 71.07 5.27 136.78 26.55 193.55 70.91 65.32 51.07 98.52 119.53 107.01 200.96.18 1.63.02 3.3.02 6.21-110.97 0-221.64 0-332.98 0v139.35c3.41.23 6.93.67 10.45.67 149.98.03 299.96-.05 449.94.24 8.65.01 11.6-2.63 12.71-10.99 20.02-149.79-8.07-286.6-111.51-401.66-67.71-75.3-154.22-118.45-253.02-137.37-89.28-17.11-177.87-13.28-264.87 13.62-198.13 61.25-342.28 235.02-363.255 441.12-15.434 151.55 33.295 283.35 135.645 394.39 105.93 114.91 238.6 172.03 395.53 168.01 121.38-3.1 229.39-43.53 321.9-123.12 4.59-3.96 8.85-8.29 13.21-12.5.94-.91 1.65-2.05 3.29-4.13"></path><path d="m3979.56 2165.69c-1.61 15.03-2.37 30.21-5.07 45.04-2.39 13.17-5.73 26.42-10.72 38.8-25.33 62.85-69.59 105.07-137.89 115.4-66.81 10.1-122.1-14.71-164.23-66.52-59.15-72.74-58.91-190.56-.95-264.18 67.81-86.12 194.64-91.46 267.45-10.85 36.38 40.27 50.11 88.96 51.41 142.31zm-481.73-432.01c42.85 17.93 84.37 35.3 126.51 52.94 2.81-5.58 5.17-10.32 7.57-15.05 48.35-95.2 162.31-131.51 253.32-80.32 50.75 28.54 74.56 74.68 80.2 130.51 2.96 29.36 1.54 59.17 2.04 88.78.02.85-.63 1.71-1.26 3.27-1.6-1.31-2.97-2.15-3.98-3.29-51.4-58.18-117.54-78.51-192.76-73.51-126.04 8.38-238.35 97.62-279.76 221.18-51.76 154.42 13.65 324.51 156.78 402.02 77.22 41.81 158.55 50.02 241.78 17.2 26.64-10.5 49.59-27.03 70.08-46.97 2.34-2.28 4.79-4.45 9.11-8.45v54.42h137.88c.26-3.24.65-5.85.65-8.47-.07-200.32.32-400.65-.54-600.97-.28-65.79-13.6-129.22-46.89-187.02-46.56-80.88-118.55-124.05-209.43-136.87-74.99-10.59-147.35-1.69-214.2 36.53-62.4 35.68-105.51 88.73-137.1 154.07"></path><path d="m2171.48 2168.17c-.02-27.68 4.57-54.37 14.28-80.21 49.16-130.78 215.36-164.26 308.27-61.05 52.05 57.82 62.57 126.92 43.68 200.45-30.9 120.38-164.68 177.2-271.05 114.9-65.87-38.59-92.99-99.98-95.18-174.09zm204.7 329.06c114.7-6.07 220.71-58.64 281.23-181.76 62.92-128.01 43.45-319.41-109.09-422.14-79.61-53.62-167.99-69.2-260.91-48.81-131.54 28.87-217.1 110.5-249.68 240.57-32.23 128.77 1.9 241.43 101.04 331.71 57.78 52.61 135.11 79.72 237.41 80.43"></path><path d="m2893.7 2168.11c0-27.69 4.52-54.46 14.48-80.17 52.24-134.87 224.26-165.28 314.02-53.99 54.66 67.75 60.29 145.14 26.7 223.71-43.28 101.22-163.7 140.29-259.08 85.05-66.46-38.49-93.71-100.16-96.12-174.6zm-144.85.76c-.55 183.92 145.47 328.31 332.31 328.18 166.3-.11 330.78-118.31 331.14-329.11.32-187.71-142.24-331.15-329.36-331.21-189.1-.07-333.53 143.51-334.09 332.14"></path><path d="m4551.99 2178.6c1.34-.44 2.68-.88 4.02-1.31 97.69 40.84 195.38 81.68 293.5 122.71-1.24 2.7-1.91 4.54-2.9 6.21-2.05 3.47-4.03 7.01-6.46 10.23-32.3 42.6-76.5 58.64-128.01 52.96-74.01-8.15-140.14-69.93-155.45-143.33-3.23-15.47-3.21-31.63-4.7-47.47zm24.96-111.99c26.9-51.64 65.56-86.52 123.51-97.16 79.48-14.59 137.57 10.49 200.69 87.43 37.51-24.95 75.15-49.97 113.48-75.45-21.64-29.16-45.64-54.43-73.29-76.16-138.69-108.92-344.34-86.98-456.05 49.22-45.83 55.87-67.54 121.28-70.75 192.88-4.49 99.96 22.13 189.46 93.69 262.08 123.78 125.64 353.84 128.52 466.53-62.13 17.87-30.22 30.5-63.54 46.08-96.55-75.6-31.34-149.26-61.86-222.9-92.41-73.37-30.44-146.72-60.92-220.99-91.75"></path><path d="m4203.26 2829.08h143.99c0-324.16 0-648.01 0-972.5-48.04 0-95.7 0-143.99 0z"></path></g></svg> 