<?xml version="1.0" encoding="UTF-8"?> <svg xmlns="http://www.w3.org/2000/svg" height="466.66666" viewBox="0 0 800 466.66666" width="800"><g fill="#fff" transform="matrix(.13333333 0 0 -.13333333 0 466.66667)"><path d="m5104.82 2207.18h71.11v132.61h93.97v-132.61h84.83v-72.78h-84.83v-235.95c0-10.33.42-18.95 1.25-26.69.83-7.33 2.91-13.78 5.82-18.95s7.48-9.04 13.72-11.63c6.24-2.58 14.14-3.88 24.95-3.88 6.65 0 13.3 0 19.96.43 6.65.43 13.31 1.3 19.96 3.02v-75.35c-10.4-1.29-20.79-2.15-30.36-3.45-9.98-1.29-19.96-1.72-30.35-1.72-24.95 0-44.91 2.58-59.88 7.32s-27.03 12.06-35.34 21.53c-8.73 9.47-14.14 21.11-17.46 35.31-2.92 14.21-4.99 30.57-5.41 48.66v260.49h-71.1v73.64zm-242.83-376.76c20.79 0 39.09 4.74 54.47 13.78 15.39 9.04 27.86 21.09 37.84 35.73s17.05 31.44 22.04 49.95c4.57 18.52 7.07 37.46 7.07 56.84 0 18.94-2.5 37.46-7.07 56.4-4.57 18.95-12.06 35.31-22.04 49.96-9.98 14.63-22.45 26.26-37.84 35.3-15.38 9.04-33.68 13.78-54.47 13.78s-39.09-4.74-54.47-13.78-27.86-21.09-37.84-35.3c-9.98-14.65-17.04-31.01-22.03-49.96-4.58-18.94-7.07-37.46-7.07-56.4 0-19.38 2.49-38.32 7.07-56.84 4.57-18.51 12.05-35.31 22.03-49.95s22.46-26.69 37.84-35.73c15.38-9.47 33.68-13.78 54.47-13.78zm0-77.08c-34.1 0-64.45 6.03-91.06 17.66s-49.07 27.98-67.78 48.22c-18.29 20.67-32.43 45.21-41.99 73.63-9.57 28.42-14.56 59.86-14.56 93.87 0 33.58 4.99 64.59 14.56 93.01 9.56 28.41 23.7 52.96 41.99 73.62 18.3 20.67 41.17 36.6 67.78 48.23 26.61 11.62 56.96 17.65 91.06 17.65s64.45-6.03 91.07-17.65c26.61-11.63 49.06-27.99 67.77-48.23 18.3-20.66 32.44-45.21 42-73.62 9.56-28.42 14.55-59.43 14.55-93.01 0-34.01-4.99-65.45-14.55-93.87s-23.7-52.96-42-73.63-41.16-36.59-67.77-48.22c-26.62-11.63-56.97-17.66-91.07-17.66zm-382.13 622.19h93.98v-610.13h-93.98zm-177.96-168.35h93.97v-441.78h-93.97zm0 168.35h93.97v-92.14h-93.97zm-165.91-389.67c0 19.8-2.49 39.18-7.48 58.12-4.99 18.95-12.48 35.32-22.46 49.96-9.98 14.63-22.45 26.26-37.01 34.87-14.96 8.61-32.01 13.35-51.14 13.35-39.5 0-69.44-14.21-89.4-42.63s-29.94-66.31-29.94-113.67c0-22.39 2.5-43.06 7.9-62 5.41-18.95 12.89-35.32 23.71-49.09 10.39-13.78 22.86-24.55 37.42-32.3 14.55-8.17 31.6-12.05 50.72-12.05 21.63 0 39.51 4.74 54.48 13.78 14.96 9.04 27.02 21.09 36.59 35.3 9.56 14.64 16.63 31.01 20.79 49.52 3.74 18.52 5.82 37.46 5.82 56.84zm-328.49 221.32h88.98v-59.86h1.67c13.3 25.83 31.6 43.92 55.3 55.12 23.7 11.19 49.06 16.79 76.93 16.79 33.68 0 62.78-6.03 87.73-18.52 24.95-12.05 45.74-28.84 62.37-50.37s28.69-46.5 37.01-74.92 12.47-58.99 12.47-91.29c0-29.71-3.74-58.55-11.23-86.11-7.48-27.99-18.71-52.53-33.68-74.06-14.96-21.53-34.09-38.33-57.37-51.24-23.29-12.92-50.32-19.38-81.92-19.38-13.72 0-27.45 1.3-41.17 3.88s-27.02 6.89-39.5 12.49c-12.47 5.59-24.53 12.92-34.92 21.96-10.82 9.04-19.55 19.37-27.04 31h-1.66v-220.46h-93.97zm-316.43 0h71.1v132.61h93.98v-132.61h84.82v-72.78h-84.82v-235.95c0-10.33.41-18.95 1.24-26.69.84-7.33 2.91-13.78 5.83-18.95 2.91-5.17 7.48-9.04 13.72-11.63 6.23-2.58 14.13-3.88 24.94-3.88 6.66 0 13.31 0 19.97.43 6.65.43 13.3 1.3 19.95 3.02v-75.35c-10.39-1.29-20.79-2.15-30.35-3.45-9.98-1.29-19.96-1.72-30.36-1.72-24.94 0-44.9 2.58-59.87 7.32s-27.03 12.06-35.35 21.53c-8.73 9.47-14.13 21.11-17.46 35.31-2.91 14.21-4.99 30.57-5.41 48.66v260.49h-71.1v73.64zm-310.19-300.12c2.91-28.42 13.3-48.22 31.18-59.85 18.3-11.19 39.92-17.22 65.28-17.22 8.73 0 18.71.86 29.94 2.15s22.04 4.31 31.6 8.18c9.98 3.88 17.88 9.9 24.54 17.66 6.23 7.74 9.14 17.64 8.73 30.14-.42 12.49-4.99 22.82-13.31 30.57-8.31 8.18-18.71 14.21-31.6 19.38-12.89 4.73-27.44 9.04-44.08 12.48-16.63 3.44-33.26 7.32-50.31 11.2-17.46 3.87-34.51 9.04-50.73 14.64-16.21 5.59-30.77 13.35-43.66 23.25-12.88 9.47-23.28 21.95-30.77 37.03-7.9 15.07-11.64 33.58-11.64 55.97 0 24.12 5.82 43.92 17.05 60.28 11.23 16.37 25.78 29.28 42.83 39.19 17.46 9.9 36.59 16.79 57.79 21.09 21.21 3.88 41.59 6.03 60.71 6.03 22.04 0 43.25-2.58 63.21-7.32 19.96-4.73 38.25-12.49 54.47-23.68 16.21-10.77 29.52-24.98 40.33-42.19 10.81-17.23 17.47-38.33 20.38-62.88h-98.14c-4.57 23.26-14.55 39.19-30.76 46.94-16.22 8.18-34.93 12.06-55.72 12.06-6.66 0-14.56-.43-23.7-1.72-9.15-1.3-17.47-3.45-25.78-6.47-7.91-3-14.56-7.74-20.38-13.77-5.41-6.03-8.32-13.78-8.32-23.69 0-12.05 4.16-21.52 12.06-28.84s18.3-13.35 31.19-18.52c12.89-4.74 27.44-9.04 44.07-12.48 16.63-3.45 33.68-7.32 51.15-11.2 17.05-3.88 33.68-9.04 50.31-14.64s31.18-13.35 44.08-23.25c12.89-9.9 23.28-21.96 31.18-36.6s12.06-33.16 12.06-54.68c0-26.27-5.82-48.22-17.46-66.74-11.64-18.09-26.61-33.15-44.91-44.35s-39.09-19.81-61.54-24.98c-22.45-5.16-44.91-7.75-66.95-7.75-27.02 0-51.97 3.02-74.84 9.47-22.87 6.47-42.83 15.94-59.46 28.42-16.63 12.92-29.94 28.85-39.51 47.79-9.56 18.95-14.55 41.77-15.38 68.04h94.81zm-160.09-141.66h-92.31v61.57h-1.66c-11.64-22.39-28.7-40.04-51.56-53.39-22.87-13.35-46.16-20.24-69.86-20.24-56.13 0-96.88 14.21-121.83 43.07-24.95 28.84-37.42 72.33-37.42 130.46v280.31h93.97v-270.84c0-38.75 7.07-66.31 21.62-82.24 14.14-15.94 34.51-24.11 60.3-24.11 19.95 0 36.17 3.01 49.47 9.47 13.31 6.46 24.12 14.64 32.02 25.4 8.32 10.34 14.14 23.26 17.88 37.89 3.75 14.64 5.41 30.58 5.41 47.8v256.2h93.97zm-681.93 441.78h88.16v-85.26h1.66c2.91 12.05 8.31 23.69 16.21 34.88s17.47 21.96 28.69 31c11.23 9.48 23.71 16.79 37.43 22.82 13.72 5.6 27.86 8.61 41.99 8.61 10.82 0 18.72-.43 22.87-.86 4.16-.43 8.32-1.29 12.89-1.72v-93.87c-6.65 1.29-13.3 2.15-20.37 3.01-7.07.87-13.72 1.3-20.37 1.3-15.8 0-30.77-3.45-44.91-9.9-14.14-6.47-26.2-16.37-36.59-28.85-10.4-12.92-18.71-28.43-24.95-47.37-6.24-18.95-9.15-40.47-9.15-65.01v-210.13h-93.97v441.35zm-456.56 168.35h476.94v-92.14h-187.53v-517.99h-103.12v517.99h-186.7v92.14z"></path><path d="m1772.53 2375.53h-430.78l-133.05 424.55-133.48-424.55-430.779.43 348.864-262.65-133.477-424.12 348.872 262.22 348.44-262.22-133.06 424.12z"></path><path d="m1454.02 2017.29-29.94 96.02-215.38-161.9z"></path><g fill-rule="evenodd"><path d="m1675.23 763.672 160.1 25.816 82.63 160.09 77.46-154.918 170.43-30.988-118.78-118.793 25.82-170.418-154.93 72.309-154.93-72.309 20.66 170.418z"></path><path d="m2214.97 763.672 160.09 25.816 82.63 160.09 77.46-154.918 170.43-30.988-118.78-118.793 25.82-170.418-154.93 72.309-154.93-72.309 20.65 170.418z"></path><path d="m2754.69 763.672 160.1 25.816 82.63 160.09 77.46-154.918 170.43-30.988-118.78-118.793 25.82-170.418-154.93 72.309-154.94-72.309 20.66 170.418z"></path><path d="m3294.42 763.672 160.1 25.816 82.63 160.09 77.46-154.918 170.42-30.988-118.78-118.793 25.83-170.418-154.93 72.309-154.93-72.309 20.66 170.418z"></path><path d="m3834.15 763.672 160.1 25.816 82.62 160.09 77.47-154.918 170.43-30.988-118.78-118.793 25.82-170.418-154.94 72.309-154.92-72.309 20.65 170.418z"></path></g></g></svg> 