<?xml version="1.0" encoding="UTF-8"?> <svg xmlns="http://www.w3.org/2000/svg" height="466.66666" viewBox="0 0 800 466.66666" width="800"><g fill="#fff" transform="matrix(.13333333 0 0 -.13333333 0 466.66667)"><path d="m3363.37 2506.13h233.45v-90.78l-350.2 12.95c0 51.91 12.97 103.78 38.93 142.68 25.91 38.92 77.82 77.82 116.72 103.77l25.94 12.95c51.88 25.95 64.86 38.92 64.86 64.85 0 25.95-38.93 51.89-64.86 51.89-51.89 0-90.8-25.94-116.75-77.82l-64.84 64.86c12.97 25.91 38.93 51.87 64.84 77.82 38.93 25.93 77.83 25.93 116.75 25.93 38.91 0 90.77-12.98 116.73-38.91 25.92-25.95 51.88-64.84 51.88-103.77 0-64.85-38.91-116.73-116.73-142.65l-38.93-25.95c-38.89-25.95-64.84-38.9-77.79-77.82"></path><path d="m3752.43 1987.33-194.52-311.27-181.59 311.27h-376.12l194.55 324.25h363.16z"></path><path d="m3480.09 1598.26c-129.7-90.8-285.34-142.67-453.95-142.67-415.04-12.97-765.21 298.3-778.18 713.35-12.98 415.01 298.29 765.2 713.34 778.15h64.84c51.88 0 103.75 0 155.63-12.95l-155.63-298.32c-233.44 12.98-440.96-168.59-453.94-402.04-12.97-233.47 168.6-441 402.07-453.95h51.87c103.75 0 207.53 38.9 285.32 103.75z"></path><g fill-rule="evenodd"><path d="m1675.23 763.672 160.1 25.816 82.63 160.09 77.46-154.918 170.43-30.988-118.78-118.793 25.82-170.418-154.93 72.309-154.93-72.309 20.65 170.418z"></path><path d="m2214.96 763.672 160.1 25.816 82.63 160.09 77.47-154.918 170.42-30.988-118.78-118.793 25.82-170.418-154.93 72.309-154.94-72.309 20.67 170.418z"></path><path d="m2754.7 763.672 160.09 25.816 82.63 160.09 77.46-154.918 170.42-30.988-118.78-118.793 25.82-170.418-154.92 72.309-154.93-72.309 20.65 170.418z"></path><path d="m3294.42 763.672 160.1 25.816 82.63 160.09 77.46-154.918 170.43-30.988-118.78-118.793 25.82-170.418-154.93 72.309-154.93-72.309 20.65 170.418z"></path><path d="m3834.15 763.672 160.1 25.816 82.63 160.09 77.47-154.918 170.42-30.988-118.78-118.793 25.82-170.418-154.93 72.309-154.94-72.309 20.67 170.418z"></path></g></g></svg> 