<svg xmlns="http://www.w3.org/2000/svg" viewBox="0 0 340.92 274.19"><g fill="#fff"><path d="m2.14 257.4v-5.11c12.45-9.17 16.1-12.31 16.1-16.05 0-2.65-2.42-3.97-4.97-3.97-3.42 0-6.07 1.37-8.12 3.51l-3.69-4.29c2.96-3.42 7.48-4.97 11.72-4.97 6.48 0 11.63 3.65 11.63 9.71 0 5.2-4.29 9.71-12.45 15.46h12.68v5.7h-22.9z"></path><path d="m41.5 226.53c8.67 0 12.59 7.84 12.59 15.69s-3.92 15.73-12.59 15.73-12.59-7.89-12.59-15.73 3.88-15.69 12.59-15.69zm0 5.75c-4.38 0-6.02 4.33-6.02 9.94s1.64 9.99 6.02 9.99 5.97-4.38 5.97-9.99-1.64-9.94-5.97-9.94z"></path><path d="m57.79 257.4v-5.11c12.45-9.17 16.1-12.31 16.1-16.05 0-2.65-2.42-3.97-4.97-3.97-3.42 0-6.07 1.37-8.12 3.51l-3.69-4.29c2.96-3.42 7.48-4.97 11.72-4.97 6.48 0 11.63 3.65 11.63 9.71 0 5.2-4.29 9.71-12.45 15.46h12.68v5.7h-22.9z"></path><path d="m85.15 257.4v-5.11c12.45-9.17 16.1-12.31 16.1-16.05 0-2.65-2.42-3.97-4.97-3.97-3.42 0-6.07 1.37-8.12 3.51l-3.69-4.29c2.96-3.42 7.48-4.97 11.72-4.97 6.48 0 11.63 3.65 11.63 9.71 0 5.2-4.29 9.71-12.45 15.46h12.68v5.7h-22.9z"></path><path d="m145.9 257.4v-12.77h-14.37v12.77h-6.48v-30.42h6.48v11.95h14.37v-11.95h6.52v30.42z"></path><path d="m172.81 226.48c9.21 0 15.92 6.57 15.92 15.74s-6.7 15.73-15.92 15.73-15.87-6.57-15.87-15.73 6.7-15.74 15.87-15.74zm0 5.75c-5.61 0-9.21 4.29-9.21 9.99s3.6 9.99 9.21 9.99 9.26-4.33 9.26-9.99-3.65-9.99-9.26-9.99z"></path><path d="m214.27 257.4-14.5-20.43v20.43h-6.48v-30.42h6.66l14.09 19.7v-19.7h6.48v30.42z"></path><path d="m240.95 226.48c9.21 0 15.92 6.57 15.92 15.74s-6.7 15.73-15.92 15.73-15.87-6.57-15.87-15.73 6.7-15.74 15.87-15.74zm0 5.75c-5.61 0-9.21 4.29-9.21 9.99s3.6 9.99 9.21 9.99 9.26-4.33 9.26-9.99-3.65-9.99-9.26-9.99z"></path><path d="m278.62 257.4-5.97-10.9h-4.74v10.9h-6.48v-30.42h14.23c6.34 0 10.22 4.15 10.22 9.81s-3.38 8.25-6.66 9.03l6.84 11.58h-7.43zm-3.92-24.86h-6.8v8.39h6.8c2.6 0 4.56-1.64 4.56-4.2s-1.96-4.2-4.56-4.2z"></path><path d="m290.75 257.4v-30.42h21.53v5.56h-15.05v6.61h14.73v5.56h-14.73v7.07h15.05v5.61h-21.53z"></path><path d="m317.34 257.4v-30.42h21.53v5.56h-15.05v6.61h14.73v5.56h-14.73v7.07h15.05v5.61h-21.53z"></path><path d="m105.57 56.97c-.73.12-2.73 2.58-3.66 3.35h5.32c.46-.71.91-1.43 1.36-2.16-.98-.28-2.11-1.34-3.02-1.19z"></path><path d="m140.5 46.91v13.44h-33.27c.46-.71.91-1.43 1.36-2.16-1-.3-2.11-1.36-3-1.21-.73.12-2.73 2.58-3.66 3.35h-7.66v-13.24h11.91v-32.78h-8.4v-14.31h42.64v14.13h-8.36v32.78z"></path><path d="m169.59 47.03h6v13.13h-32.62v-13h5.53v-19.69h-5.52v-13.18h25.67v8.34c.52-.25.76-.3.89-.45 6.83-7.84 15.55-8.94 25-6.63 7.14 1.74 10.72 6.63 10.8 14 .06 5.57 0 11.13.05 16.69.03.21.09.41.18.6h4.21c-.51-2.68-.87-5.4-1.07-8.12-.28-10.16 4.43-17.54 13.89-21.42 9.06-3.7 18.39-4.27 27.64-.75 7.59 2.88 11.66 8.67 12.54 17.17l-17.59 2c-.4-1.91-.64-3.7-1.17-5.41-.95-3.09-2.89-4.54-5.86-4.65-3.65-.13-6.27 1.19-7.27 4.21-1.73 5.25-1.73 10.91 0 16.16 1 3.08 4.17 4.66 7.7 4.31s5.77-2.27 6.48-5.61c.1-.45.23-.9.36-1.39h17.68c-.62 5.53-2.84 10-7.14 13.29-3.41 2.51-7.44 4.05-11.65 4.45-6.31.93-12.76.47-18.87-1.36-6.26-1.81-11.56-6.01-14.75-11.69v12.18h-32.14v-13.17h5.84c0-5.15.14-10.06-.1-14.95-.25-1.39-1.05-2.63-2.21-3.43-4.84-3.38-12.15.21-12.46 6.11-.21 3.95-.04 7.95-.04 12.26z"></path><path d="m276.99 53.93c.01 4.13-3.32 7.49-7.45 7.51s-7.49-3.32-7.51-7.45c0-.14 0-.27 0-.41-.01-4.13 3.32-7.49 7.45-7.51s7.49 3.32 7.51 7.45z"></path><path d="m143.42 76.35c-14-2.66-30.84 4.38-37.91 18.92-8.24 16.94-9.07 39.55.4 56.23 8 14 30.54 19.11 41.67 13.52 10.39-5.22 25.35-13 26.16-45.07.92-21.61-12.27-41-30.32-43.6zm5.92 44.42c-.13 8.23-.82 16.45-2.07 24.59-1.05 6.63-2.92 15.87-8 18.56-10.3 5.49-14-12.41-14.83-23-.61-8.3-.93-16.65-.77-25 .15-7.39.26-15.63 2-22.68 1.24-5.07 2.82-11.46 6.28-14.31s8.11-1.45 10.93 2.39c3.16 4.31 4.15 10 4.84 16 1.06 7.77 1.6 15.61 1.62 23.45z"></path><path d="m222.98 76.35c-14-2.66-30.84 4.38-37.91 18.92-8.24 16.94-9.07 39.55.41 56.23 8 14 30.53 19.11 41.66 13.52 10.39-5.22 25.36-13 26.16-45.07.92-21.61-12.27-41-30.32-43.6zm5.92 44.42c-.13 8.23-.82 16.45-2.07 24.59-1.05 6.63-2.92 15.87-8 18.56-10.3 5.49-14.05-12.41-14.82-23-.62-8.3-.94-16.65-.78-25 .15-7.39.26-15.63 2-22.68 1.24-5.07 2.82-11.46 6.28-14.31s8.12-1.45 10.93 2.39c3.16 4.31 4.16 10 4.84 16 1.06 7.77 1.6 15.61 1.62 23.45z"></path><path d="m302.54 76.35c-14-2.66-30.84 4.38-37.91 18.92-8.24 16.94-9.07 39.55.41 56.23 8 14 30.53 19.11 41.67 13.52 10.38-5.22 25.35-13 26.16-45.07.91-21.61-12.28-41-30.33-43.6zm5.92 44.42c-.13 8.23-.82 16.45-2.07 24.59-1.05 6.63-2.91 15.87-8 18.56-10.3 5.49-14.05-12.41-14.82-23-.62-8.3-.94-16.65-.78-25 .15-7.39.26-15.63 2-22.68 1.24-5.07 2.82-11.46 6.28-14.31s8.12-1.45 10.94 2.39c3.15 4.31 4.15 10 4.83 16 1.06 7.77 1.6 15.61 1.62 23.45z"></path><path d="m89.13 154.72c-10.07 18-30.25 23.47-49.26 22.31-20.93-1.25-30.09-10.69-29.16-27.31.75-13.74 10.38-18.47 19.93-14.57 10.76 4.41 6.5 24.14.77 32.24 3.11 10.68 17.8 9.39 21.91 1.34 5.6-11.09 8.13-23.47 7.35-35.86-2.38-18.47-5.12-20.9-11-24.74-11.25-3.58-21.68 3.53-27.49 13.66-1.41 2-.91 2.58-4.52.82 3.16-14.73 5-24.67 7.89-41.36 1-5.77 1.78-13 3.64-19.82.86-3.15 1.51-2 4.92-.41 2.57 1.2 9.16 3.89 12 4.35 15.88 2.63 22.35 2.34 33.88.1 4.69-.78 9.18-2.48 13.21-5l.2-.15c.92-.78 2.93-3.24 3.66-3.36.91-.14 3 1.64 4 1.94-.44.73-2.51-1.8-3-1.08-2.65 4.12-7.39 12.63-10.72 16.28-22.15 24.27-39.32 18.41-60.69 18.41-1.43 6.48-2.5 13.7-4.14 21.13 1.24-.15 4.87-3.36 6.47-4.55 3.79-2.72 8.13-4.56 12.72-5.4 7.85-1.68 19.88-.58 29.66 2.78s15.33 10.08 18.91 16.28 3.51 23.6-1.14 31.97z"></path></g></svg>