<svg xmlns="http://www.w3.org/2000/svg" xmlns:xlink="http://www.w3.org/1999/xlink" id="Layer_1" x="0px" y="0px" style="enable-background:new 0 0 327.2 37.8;" xml:space="preserve" viewBox="0 0 327.1 37.9"><style type="text/css">	.st0{fill:#202020;}</style><path class="st0" d="M10.8,19.7c1.9,2.5,4.2,4.9,6.5,7.2c4,4,8.5,7.6,13.1,10.3H17c-6.9-5-13-11.7-17-18.4C4,12.2,10.1,5.5,17,0.5  h13.4c-4.6,2.8-9.1,6.3-13.1,10.3c-2.3,2.3-4.6,4.8-6.5,7.2v0c-0.2,0.2-0.3,0.5-0.3,0.8C10.5,19.2,10.6,19.5,10.8,19.7L10.8,19.7   M78.5,19.7c-1.9,2.5-4.2,4.9-6.5,7.2c-4,4-8.5,7.6-13.1,10.3h13.4c6.9-5,13-11.7,17-18.4c-4-6.7-10.1-13.4-17-18.4H58.9  C63.5,3.3,68,6.8,72,10.8c2.3,2.3,4.6,4.8,6.5,7.2v0c0.2,0.2,0.3,0.5,0.3,0.8C78.8,19.2,78.7,19.5,78.5,19.7L78.5,19.7 M44.6,26.8  c4.4,0,7.9-3.5,7.9-7.9c0-4.4-3.5-7.9-7.9-7.9c-4.4,0-7.9,3.5-7.9,7.9C36.8,23.2,40.3,26.8,44.6,26.8 M44.6,0.5  C54.8,0.5,63,8.7,63,18.9c0,10.2-8.2,18.4-18.4,18.4c-10.2,0-18.4-8.2-18.4-18.4C26.3,8.7,34.5,0.5,44.6,0.5 M230.6,12.6h5.1  l-10,24.7h-3.5L215.3,20l-6.9,17.3h-3.5l-10-24.7h5.1l6.8,16.9l6.8-16.9h3.5l6.8,16.9L230.6,12.6z M289.9,21.8  c0.8-3.2,3.7-5.4,6.9-5.4c2.9,0,5.8,2.2,6.5,5.4L289.9,21.8z M308.5,26c0.1-0.5,0.1-0.8,0.1-1.1c0-7.3-5-12.9-11.9-12.9  c-7,0-12,5.5-12,12.9c0,7.4,5.6,12.9,12.8,12.9c5,0,8.6-2.3,10.4-4.6l-3.3-3.1c-1.4,1.6-3.4,3.4-7.1,3.4c-4.3,0-7.7-3.3-8-7.5  L308.5,26 M317.8,15.5c1.2-1.7,3.8-3.4,7.4-3.4c0.5,0,1.4,0.1,1.9,0.2l-0.6,4.8c-0.6-0.2-1.2-0.2-1.9-0.2c-2.6,0-5.3,1.8-6.7,4.1  l0,16.3h-5l0-24.7h4.8V15.5 M255.7,29.6c-1.7,2.3-4.3,3.5-6.8,3.5c-4.8,0-8.2-3.7-8.2-8.1c0-4.3,3.2-8.1,7.9-8.1c3,0,5.5,1.5,7,3.5  V29.6z M255.9,14.9c-2.3-1.9-4.9-2.8-7.7-2.8c-2.3,0-4.4,0.6-6,1.6c-3.7,2.2-6.4,6.4-6.4,11.3c0,4.9,2.6,9,6.3,11.2  c1.7,1,4,1.6,6.2,1.6c2.9,0,5.6-1,7.6-2.8l0,2.3l4.8,0l0-24.7l-4.8,0L255.9,14.9z M143.4,21.8c0.8-3.2,3.7-5.4,6.9-5.4  c2.9,0,5.8,2.2,6.5,5.4L143.4,21.8z M162,24.9c0-7.3-5-12.9-11.9-12.9c-7,0-12,5.5-12,12.9c0,7.4,5.6,12.9,12.8,12.9  c5,0,8.6-2.3,10.4-4.6l-3.3-3.1c-1.4,1.6-3.4,3.4-7.1,3.4c-4.3,0-7.7-3.3-8-7.5l19,0C162,25.5,162,25.2,162,24.9 M171.6,37.3h-5  l0-37.3l5,0L171.6,37.3z M130,0.5h3.7l0,36.8l-5.3,0l0-24.7l-10.8,16.9H114l-10.8-16.9l0,24.7l-5.3,0l0-36.8l3.7,0L115.9,23L130,0.5  z M184.7,5.8l0,6.8l7.9,0v4.5l-7.9,0l0,11.6c0,1.3,0.1,2.4,0.7,3.2c0.7,0.8,2.1,1.3,3.4,1.3c0.7,0,2-0.1,2.7-0.3l1,4.5  c-0.9,0.3-2.5,0.5-3.9,0.5c-3.1,0-5.4-1.1-7-2.9c-1.5-1.6-2-3.9-2-6.6l0-11.3l-3.6,0v-4.5h3.6l0-6.8H184.7z M269,5.8v6.8l-3.6,0  l0,4.5h3.6v11.3c0,2.7,0.5,4.9,2,6.6c1.6,1.8,3.9,2.9,7,2.9c1.4,0,2.9-0.2,3.9-0.5l-1-4.5c-0.7,0.2-2,0.3-2.7,0.3  c-1.3,0-2.7-0.5-3.4-1.3c-0.6-0.7-0.7-1.8-0.7-3.2l0-11.5h7.9v-4.5H274V5.8L269,5.8z"></path></svg>